<svg width="127" height="74" viewBox="0 0 127 74" fill="none" xmlns="http://www.w3.org/2000/svg">
<path d="M63.0432 47.5062C76.163 47.5062 86.7986 36.8716 86.7986 23.7531C86.7986 10.6346 76.163 0 63.0432 0C49.9235 0 39.2878 10.6346 39.2878 23.7531C39.2878 36.8716 49.9235 47.5062 63.0432 47.5062Z" fill="#F97316"/>
<mask id="mask0_47_159" style="mask-type:luminance" maskUnits="userSpaceOnUse" x="47" y="10" width="32" height="28">
<path d="M78.5755 10.0493H47.5107V37.4567H78.5755V10.0493Z" fill="white"/>
</mask>
<g mask="url(#mask0_47_159)">
<path d="M78.5649 23.7263C78.5649 24.6898 77.7559 25.4446 76.8391 25.4446H75.1133L75.151 34.0201C75.1618 35.9204 73.6139 37.4621 71.6993 37.4621H54.4196C52.5158 37.4621 50.9679 35.9257 50.9679 34.0362V25.4499H49.2421C48.2713 25.4499 47.5164 24.7005 47.5164 23.7316C47.5164 23.2498 47.6781 22.8216 48.0556 22.4469L61.8784 10.4776C62.2559 10.1029 62.6874 10.0493 63.0649 10.0493C63.4424 10.0493 63.8739 10.1564 64.1975 10.4241L77.9716 22.4416C78.4031 22.8162 78.6188 23.2445 78.5649 23.7263ZM66.4949 22.0401C66.4949 21.1314 66.1313 20.26 65.4839 19.6175C64.8367 18.9751 63.9587 18.6141 63.0433 18.6141C62.1278 18.6141 61.2499 18.9751 60.6027 19.6175C59.9553 20.26 59.5917 21.1314 59.5917 22.0401C59.5917 22.9487 59.9553 23.8201 60.6027 24.4625C61.2499 25.105 62.1278 25.466 63.0433 25.466C63.9587 25.466 64.8367 25.105 65.4839 24.4625C66.1313 23.8201 66.4949 22.9487 66.4949 22.0401ZM61.3175 27.1789C58.9337 27.1789 57.0029 29.0954 57.0029 31.4614C57.0029 31.9324 57.3912 32.3178 57.8659 32.3178H68.2207C68.6954 32.3178 69.0837 31.9324 69.0837 31.4614C69.0837 29.0954 67.1529 27.1789 64.7691 27.1789H61.3175Z" fill="#1E3A8A"/>
</g>
<path d="M7.05775 55.2698C7.14698 55.2044 7.24215 55.1628 7.34327 55.1449L12.2239 67.332C12.2834 67.4806 12.3815 67.6085 12.5184 67.7156C12.6552 67.8167 12.8247 67.897 13.0269 67.9565C13.2351 68.01 13.4136 68.0516 13.5623 68.0814C13.7169 68.1051 13.9043 68.129 14.1244 68.1527C14.1482 68.2479 14.1601 68.3282 14.1601 68.3936C14.1601 68.465 14.1482 68.5304 14.1244 68.5899C12.8395 68.5423 11.8789 68.5185 11.2424 68.5185C10.5524 68.5185 9.55306 68.5423 8.24445 68.5899C8.22066 68.5185 8.20876 68.4472 8.20876 68.3758C8.20876 68.2984 8.22066 68.2241 8.24445 68.1527C9.44598 68.0219 10.0468 67.7959 10.0468 67.4747C10.0468 67.3735 10.0349 67.2695 10.0111 67.1624L8.71735 63.8435C8.32475 63.8317 7.79535 63.8257 7.12913 63.8257C6.81386 63.8257 5.99597 63.8376 4.67543 63.8614L3.31028 67.332V67.439C3.31028 67.4985 3.3192 67.555 3.33704 67.6085C3.36084 67.662 3.39653 67.7096 3.44412 67.7513C3.49765 67.7929 3.54821 67.8286 3.5958 67.8583C3.64339 67.8881 3.70881 67.9178 3.7921 67.9475C3.88132 67.9713 3.95568 67.9921 4.01516 68.01C4.0806 68.0219 4.16685 68.0368 4.27391 68.0546C4.38693 68.0724 4.47318 68.0873 4.53267 68.0992C4.59215 68.1051 4.6784 68.1141 4.79142 68.126C4.91039 68.1378 4.99366 68.1468 5.04125 68.1527C5.06505 68.2479 5.07694 68.3282 5.07694 68.3936C5.07694 68.4293 5.06505 68.4948 5.04125 68.5899C3.70881 68.5423 2.95932 68.5185 2.79277 68.5185C2.47156 68.5185 1.64474 68.5423 0.312302 68.5899C0.288508 68.5185 0.276611 68.4472 0.276611 68.3758C0.276611 68.2984 0.288508 68.2241 0.312302 68.1527C1.54956 68.01 2.25445 67.7066 2.42695 67.2427L6.26364 57.5716L6.06734 57.0452C6.4064 56.8192 6.64136 56.5754 6.77223 56.3136C6.90904 56.052 7.00422 55.704 7.05775 55.2698ZM7.12913 63.1299C7.67638 63.1299 8.10764 63.1239 8.4229 63.112L6.72761 58.7225H6.69193L4.98771 63.0941C5.54686 63.1179 6.26066 63.1299 7.12913 63.1299ZM15.0523 60.605C15.2665 60.6169 15.4807 60.6288 15.6947 60.6407C15.9089 60.6526 16.0785 60.6615 16.2034 60.6674C16.3283 60.6734 16.4442 60.6764 16.5513 60.6764C16.6406 60.6764 16.7446 60.6734 16.8636 60.6674C16.9826 60.6615 17.1432 60.6526 17.3455 60.6407C17.5536 60.6288 17.7529 60.6169 17.9433 60.605C18.0504 60.6407 18.1366 60.7329 18.202 60.8815C18.1961 60.9291 18.1841 61.0005 18.1663 61.0957C18.1544 61.1849 18.1426 61.2949 18.1307 61.4258C18.1246 61.5506 18.1217 61.7053 18.1217 61.8897L18.1039 66.1275C18.1039 67.1981 18.4281 67.7334 19.0764 67.7334C19.6772 67.7334 20.5308 67.3379 21.6372 66.5468C21.6372 64.7744 21.6104 63.222 21.5569 61.8897C21.5569 61.7827 21.5361 61.6875 21.4944 61.6042C21.4528 61.521 21.3874 61.4496 21.2981 61.3901C21.2149 61.3307 21.1376 61.2831 21.0661 61.2473C21.0007 61.2057 20.9026 61.17 20.7717 61.1403C20.6408 61.1046 20.5486 61.0838 20.4951 61.0779C20.4415 61.0659 20.3524 61.0481 20.2275 61.0243C20.2036 60.9291 20.1917 60.8578 20.1917 60.8102C20.1917 60.7685 20.2036 60.7002 20.2275 60.605C20.4356 60.6169 20.6468 60.6288 20.8609 60.6407C21.081 60.6526 21.2535 60.6615 21.3784 60.6674C21.5034 60.6734 21.6193 60.6764 21.7264 60.6764C21.8157 60.6764 21.9198 60.6734 22.0387 60.6674C22.1577 60.6615 22.3183 60.6526 22.5205 60.6407C22.7287 60.6288 22.928 60.6169 23.1183 60.605C23.1481 60.6228 23.1718 60.6407 23.1898 60.6585C23.2135 60.6704 23.2313 60.6882 23.2433 60.7121C23.2611 60.7299 23.273 60.7448 23.2789 60.7567C23.2849 60.7626 23.2938 60.7834 23.3057 60.8191C23.3176 60.8488 23.3265 60.8697 23.3325 60.8815C23.2849 61.2028 23.2611 61.5388 23.2611 61.8897C23.2254 62.7641 23.2076 63.4748 23.2076 64.022C23.2076 64.3075 23.2135 64.7863 23.2254 65.4584C23.2373 66.1305 23.2433 66.7193 23.2433 67.2249C23.5823 67.4211 24.1533 67.5431 24.9564 67.5907C24.9861 67.7393 25.001 67.8167 25.001 67.8226C25.001 67.8583 24.9861 67.9208 24.9564 68.01C23.8322 68.117 22.8268 68.3609 21.9406 68.7415C21.7859 68.6761 21.6848 68.5958 21.6372 68.5007V67.1089C21.0424 67.6204 20.4803 68.0278 19.9508 68.3311C19.4274 68.6285 18.898 68.7773 18.3627 68.7773C17.6845 68.7773 17.2027 68.587 16.9171 68.2063C16.6376 67.8256 16.4918 67.2278 16.48 66.413L16.4086 61.8897C16.3967 61.7529 16.3699 61.6518 16.3283 61.5864C16.2926 61.515 16.2302 61.4496 16.1409 61.3901C16.0577 61.3307 15.9803 61.2831 15.9089 61.2473C15.8376 61.2057 15.7364 61.17 15.6056 61.1403C15.4746 61.1046 15.3825 61.0838 15.3289 61.0779C15.2755 61.0659 15.1832 61.0481 15.0523 61.0243C15.0286 60.9291 15.0166 60.8578 15.0166 60.8102C15.0166 60.7685 15.0286 60.7002 15.0523 60.605ZM33.5221 66.1989C33.6648 66.2286 33.7808 66.294 33.87 66.3952C33.5726 67.1922 33.1116 67.7899 32.487 68.1884C31.8624 68.581 31.1844 68.7773 30.4527 68.7773C30.0898 68.7773 29.7359 68.7297 29.3909 68.6345C29.0459 68.5453 28.7098 68.3966 28.3827 68.1884C28.0614 67.9802 27.7788 67.7245 27.535 67.4211C27.2971 67.1119 27.1037 66.7283 26.9551 66.2703C26.8123 65.8063 26.7409 65.2949 26.7409 64.7358C26.7409 63.445 27.1364 62.4012 27.9276 61.6042C28.7187 60.8072 29.7061 60.4087 30.8899 60.4087C31.7227 60.4087 32.4007 60.5901 32.9243 60.953C33.4536 61.3098 33.7183 61.7678 33.7183 62.3269C33.7183 62.6421 33.6143 62.9038 33.406 63.112C33.1978 63.3202 32.9421 63.4242 32.6387 63.4242C32.3175 63.4242 32.0587 63.332 31.8624 63.1477C31.6661 62.9574 31.568 62.7373 31.568 62.4874C31.568 62.0354 31.797 61.7499 32.255 61.6309C32.2134 61.4942 32.0796 61.3544 31.8535 61.2117C31.6275 61.063 31.3062 60.9886 30.8899 60.9886C30.6757 60.9886 30.4735 61.0154 30.2831 61.0689C30.0928 61.1165 29.8876 61.2206 29.6675 61.3812C29.4533 61.5418 29.2689 61.7529 29.1143 62.0147C28.9656 62.2763 28.8407 62.6421 28.7396 63.112C28.6384 63.5759 28.5879 64.1172 28.5879 64.7358C28.5879 65.1521 28.6295 65.5297 28.7128 65.8688C28.802 66.2078 28.9388 66.5141 29.1232 66.7877C29.3076 67.0613 29.5604 67.2754 29.8817 67.4301C30.2028 67.5848 30.5806 67.662 31.0148 67.662C31.2884 67.662 31.5472 67.6263 31.791 67.555C32.0349 67.4777 32.2312 67.3974 32.38 67.3141C32.5346 67.2308 32.6982 67.1059 32.8707 66.9394C33.0492 66.7669 33.1681 66.645 33.2276 66.5736C33.2871 66.4963 33.3852 66.3713 33.5221 66.1989ZM37.6353 58.892C37.6948 58.8682 37.7632 58.8563 37.8405 58.8563C37.9179 58.8563 37.9981 58.8682 38.0815 58.892V60.8459H40.785C40.8206 60.9351 40.8386 61.0452 40.8386 61.176C40.8386 61.289 40.8206 61.3931 40.785 61.4883H38.0815V66.2524C38.0815 67.1922 38.5127 67.662 39.3752 67.662C39.7024 67.662 39.982 67.5996 40.214 67.4747C40.4519 67.3498 40.7136 67.1624 40.9991 66.9126C41.1478 66.9304 41.246 67.0018 41.2936 67.1268C41.0319 67.5966 40.6452 67.9892 40.1337 68.3044C39.6221 68.6197 39.06 68.7773 38.4473 68.7773C37.0078 68.7773 36.288 67.9059 36.288 66.1632V61.4883H35.1905C35.1668 61.3812 35.1549 61.3128 35.1549 61.2831C35.1549 61.2771 35.1668 61.2087 35.1905 61.0779C35.476 60.9351 35.6932 60.8191 35.8419 60.7299C35.9966 60.6347 36.1899 60.5009 36.4219 60.3285C36.6598 60.156 36.874 59.9537 37.0643 59.7218C37.2605 59.4839 37.4509 59.2072 37.6353 58.892ZM42.2572 61.176C43.4112 61.057 44.4165 60.8132 45.273 60.4444C45.4217 60.5039 45.5259 60.5812 45.5853 60.6764C45.5853 63.7632 45.6091 65.9699 45.6567 67.2962C45.6626 67.4509 45.7072 67.5848 45.7905 67.6978C45.8797 67.8048 46.0047 67.8881 46.1652 67.9475C46.3259 68.007 46.4597 68.0516 46.5668 68.0814C46.6739 68.1051 46.8137 68.129 46.9862 68.1527C47.0218 68.2241 47.0397 68.2984 47.0397 68.3758C47.0397 68.4531 47.0218 68.5185 46.9862 68.5721C46.201 68.5363 45.4396 68.5185 44.702 68.5185C43.9763 68.5185 43.2209 68.5363 42.4356 68.5721C42.4119 68.4769 42.3999 68.4115 42.3999 68.3758C42.3999 68.346 42.4119 68.2717 42.4356 68.1527C42.632 68.129 42.7925 68.1051 42.9175 68.0814C43.0424 68.0516 43.197 68.007 43.3815 67.9475C43.5659 67.8881 43.7056 67.8048 43.8008 67.6978C43.896 67.5848 43.9466 67.4509 43.9525 67.2962C43.9763 66.7074 43.9882 65.9937 43.9882 65.1551C43.9882 64.8755 43.9852 64.3996 43.9793 63.7276C43.9734 63.0555 43.9703 62.4667 43.9703 61.9611C43.6313 61.7529 43.0602 61.6309 42.2572 61.5953C42.2335 61.5001 42.2215 61.4258 42.2215 61.3722C42.2215 61.3366 42.2335 61.2712 42.2572 61.176ZM43.658 57.4468C43.658 57.1434 43.7651 56.8846 43.9793 56.6705C44.1994 56.4564 44.4581 56.3494 44.7555 56.3494C45.0589 56.3494 45.3176 56.4564 45.5318 56.6705C45.746 56.8846 45.853 57.1434 45.853 57.4468C45.853 57.7441 45.746 58.0028 45.5318 58.2229C45.3176 58.437 45.0589 58.5441 44.7555 58.5441C44.4581 58.5441 44.1994 58.437 43.9793 58.2229C43.7651 58.0028 43.658 57.7441 43.658 57.4468ZM52.527 60.4087C53.116 60.4087 53.6454 60.5128 54.1153 60.7209C54.5911 60.9291 54.9957 61.2176 55.3287 61.5864C55.6618 61.9552 55.9177 62.3983 56.0961 62.9157C56.2745 63.4272 56.3638 63.9863 56.3638 64.593C56.3638 65.8301 56.0158 66.8353 55.3198 67.6085C54.6298 68.3877 53.6989 68.7773 52.527 68.7773C51.9441 68.7773 51.4147 68.6761 50.9389 68.4739C50.4689 68.2657 50.0674 67.9773 49.7343 67.6085C49.4012 67.2338 49.1424 66.7907 48.9581 66.2792C48.7796 65.7676 48.6903 65.2056 48.6903 64.593C48.6903 63.9863 48.7796 63.4272 48.9581 62.9157C49.1365 62.3983 49.3893 61.9552 49.7165 61.5864C50.0495 61.2176 50.4541 60.9291 50.9299 60.7209C51.4058 60.5128 51.9382 60.4087 52.527 60.4087ZM52.527 60.9886C51.9204 60.9886 51.4356 61.2831 51.0727 61.8719C50.7158 62.4607 50.5373 63.3678 50.5373 64.593C50.5373 65.8183 50.7158 66.7253 51.0727 67.3141C51.4356 67.897 51.9204 68.1884 52.527 68.1884C53.1338 68.1884 53.6156 67.894 53.9725 67.3052C54.3354 66.7163 54.5168 65.8123 54.5168 64.593C54.5168 63.9804 54.4692 63.4481 54.374 62.996C54.2789 62.544 54.145 62.1692 53.9725 61.8719C53.8 61.5745 53.5918 61.3544 53.348 61.2117C53.104 61.063 52.8305 60.9886 52.527 60.9886ZM62.8683 68.1527C62.904 68.2241 62.9218 68.2984 62.9218 68.3758C62.9218 68.4353 62.904 68.5007 62.8683 68.5721C62.0831 68.5363 61.3217 68.5185 60.5841 68.5185C59.8584 68.5185 59.103 68.5363 58.3178 68.5721C58.294 68.4769 58.2821 68.4115 58.2821 68.3758C58.2821 68.346 58.294 68.2717 58.3178 68.1527C58.5141 68.129 58.6747 68.1051 58.7996 68.0814C58.9245 68.0516 59.0792 68.007 59.2636 67.9475C59.448 67.8881 59.5878 67.8048 59.683 67.6978C59.7781 67.5848 59.8287 67.4509 59.8346 67.2962C59.8584 66.7074 59.8703 65.9937 59.8703 65.1551C59.8703 64.8755 59.8674 64.3996 59.8614 63.7276C59.8555 63.0555 59.8525 62.4667 59.8525 61.9611C59.5134 61.7529 58.9424 61.6309 58.1393 61.5953C58.1156 61.5001 58.1037 61.4258 58.1037 61.3722C58.1037 61.3366 58.1156 61.2712 58.1393 61.176C59.2933 61.057 60.2986 60.8132 61.1552 60.4444C61.3039 60.5039 61.408 60.5812 61.4675 60.6764V62.086C62.0444 61.5804 62.5977 61.176 63.127 60.8727C63.6564 60.5633 64.1918 60.4087 64.7331 60.4087C65.4112 60.4087 65.8901 60.5991 66.1697 60.9797C66.4552 61.3603 66.6038 61.9552 66.6158 62.7641L66.705 67.2962C66.7109 67.4509 66.7556 67.5848 66.8388 67.6978C66.9281 67.8048 67.053 67.8881 67.2136 67.9475C67.3801 68.007 67.517 68.0516 67.624 68.0814C67.7311 68.1051 67.8709 68.129 68.0434 68.1527C68.0672 68.2717 68.079 68.352 68.079 68.3936C68.079 68.4412 68.0672 68.5007 68.0434 68.5721C67.276 68.5363 66.5682 68.5185 65.9198 68.5185C65.2892 68.5185 64.5904 68.5363 63.823 68.5721C63.7992 68.4769 63.7874 68.4055 63.7874 68.3579C63.7874 68.3163 63.7992 68.2479 63.823 68.1527C63.9777 68.129 64.1056 68.1051 64.2066 68.0814C64.3137 68.0516 64.4327 68.007 64.5636 67.9475C64.7004 67.8881 64.8015 67.8048 64.867 67.6978C64.9383 67.5848 64.974 67.4509 64.974 67.2962L64.9918 63.0584C64.9918 61.9819 64.6677 61.4437 64.0193 61.4437C63.4126 61.4437 62.5619 61.8481 61.4675 62.657C61.4675 64.3878 61.4912 65.9342 61.5388 67.2962C61.5448 67.4509 61.5894 67.5848 61.6727 67.6978C61.7619 67.8048 61.8868 67.8881 62.0475 67.9475C62.208 68.007 62.3418 68.0516 62.4489 68.0814C62.556 68.1051 62.6958 68.129 62.8683 68.1527ZM73.9858 55.4036C75.3182 55.4512 76.3532 55.4751 77.0908 55.4751C77.8284 55.4751 78.8634 55.4512 80.1959 55.4036C80.2197 55.4988 80.2316 55.5642 80.2316 55.6C80.2316 55.6415 80.2197 55.7159 80.1959 55.823C79.9223 55.8468 79.6992 55.8736 79.5267 55.9033C79.3601 55.927 79.152 55.9687 78.9021 56.0281C78.6582 56.0876 78.4708 56.1739 78.34 56.2869C78.2092 56.3939 78.1407 56.5248 78.1348 56.6794C78.0574 58.4578 78.0188 60.1143 78.0188 61.6489C78.6791 61.6726 79.6783 61.6845 81.0168 61.6845C82.1113 61.6845 83.2088 61.6667 84.3092 61.6309C84.2853 59.4184 84.2556 57.7679 84.2199 56.6794C84.214 56.5248 84.1456 56.3939 84.0147 56.2869C83.8839 56.1739 83.6936 56.0876 83.4437 56.0281C83.1939 55.9687 82.9827 55.927 82.8102 55.9033C82.6437 55.8736 82.4236 55.8468 82.1499 55.823C82.1262 55.7159 82.1142 55.6415 82.1142 55.6C82.1142 55.5642 82.1262 55.4988 82.1499 55.4036C83.4943 55.4512 84.5293 55.4751 85.2549 55.4751C85.9866 55.4751 87.0246 55.4512 88.369 55.4036C88.3927 55.4988 88.4046 55.5642 88.4046 55.6C88.4046 55.6415 88.3927 55.7159 88.369 55.823C88.0953 55.8468 87.8722 55.8736 87.6997 55.9033C87.5332 55.927 87.325 55.9687 87.0751 56.0281C86.8253 56.0876 86.635 56.1739 86.5041 56.2869C86.3733 56.3939 86.3048 56.5248 86.2989 56.6794C86.2394 58.1604 86.2097 59.9329 86.2097 61.9967C86.2097 64.0487 86.2394 65.8152 86.2989 67.2962C86.3048 67.4509 86.3733 67.5848 86.5041 67.6978C86.635 67.8048 86.8253 67.8881 87.0751 67.9475C87.325 68.007 87.5332 68.0516 87.6997 68.0814C87.8722 68.1051 88.0953 68.129 88.369 68.1527C88.3927 68.2479 88.4046 68.3282 88.4046 68.3936C88.4046 68.4412 88.3927 68.5007 88.369 68.5721C87.3577 68.5363 86.3197 68.5185 85.2549 68.5185C84.1902 68.5185 83.1552 68.5363 82.1499 68.5721C82.1262 68.5007 82.1142 68.4412 82.1142 68.3936C82.1142 68.2925 82.1262 68.2122 82.1499 68.1527C82.4236 68.129 82.6466 68.1051 82.8191 68.0814C82.9916 68.0516 83.2028 68.007 83.4526 67.9475C83.7024 67.8881 83.8928 67.8048 84.0237 67.6978C84.1545 67.5848 84.2199 67.4509 84.2199 67.2962C84.2675 65.1729 84.2973 63.564 84.3092 62.4696C83.2088 62.4339 82.1113 62.4161 81.0168 62.4161C80.3387 62.4161 79.3393 62.428 78.0188 62.4518C78.0188 63.7187 78.0515 65.3335 78.1169 67.2962C78.1229 67.4509 78.1913 67.5848 78.3222 67.6978C78.453 67.8048 78.6404 67.8881 78.8843 67.9475C79.1341 68.007 79.3423 68.0516 79.5089 68.0814C79.6814 68.1051 79.9044 68.129 80.178 68.1527C80.2018 68.2717 80.2138 68.352 80.2138 68.3936C80.2138 68.4412 80.2018 68.5007 80.178 68.5721C79.1668 68.5363 78.1318 68.5185 77.073 68.5185C76.0023 68.5185 74.9673 68.5363 73.9679 68.5721C73.9442 68.5007 73.9323 68.4412 73.9323 68.3936C73.9323 68.2925 73.9442 68.2122 73.9679 68.1527C74.2416 68.129 74.4617 68.1051 74.6282 68.0814C74.8007 68.0516 75.0089 68.007 75.2528 67.9475C75.5026 67.8881 75.693 67.8048 75.8239 67.6978C75.9547 67.5848 76.0231 67.4509 76.0291 67.2962C76.1004 65.4346 76.1361 63.5581 76.1361 61.6667C76.1361 59.7396 76.1064 58.0772 76.0469 56.6794C76.0409 56.5248 75.9725 56.3939 75.8417 56.2869C75.7108 56.1739 75.5204 56.0876 75.2706 56.0281C75.0268 55.9687 74.8186 55.927 74.646 55.9033C74.4795 55.8736 74.2594 55.8468 73.9858 55.823C73.962 55.7159 73.9501 55.6415 73.9501 55.6C73.9501 55.5405 73.962 55.4751 73.9858 55.4036ZM93.9809 60.4087C94.5702 60.4087 95.0993 60.5128 95.5698 60.7209C96.0449 60.9291 96.4497 61.2176 96.7831 61.5864C97.1157 61.9552 97.3716 62.3983 97.5506 62.9157C97.7288 63.4272 97.8183 63.9863 97.8183 64.593C97.8183 65.8301 97.4702 66.8353 96.774 67.6085C96.0842 68.3877 95.1532 68.7773 93.9809 68.7773C93.398 68.7773 92.869 68.6761 92.393 68.4739C91.9233 68.2657 91.5213 67.9773 91.1885 67.6085C90.8554 67.2338 90.5966 66.7907 90.4122 66.2792C90.2338 65.7676 90.1445 65.2056 90.1445 64.593C90.1445 63.9863 90.2338 63.4272 90.4122 62.9157C90.5907 62.3983 90.8435 61.9552 91.1707 61.5864C91.504 61.2176 91.9078 60.9291 92.3838 60.7209C92.8598 60.5128 93.3925 60.4087 93.9809 60.4087ZM93.9809 60.9886C93.3742 60.9886 92.89 61.2831 92.5273 61.8719C92.17 62.4607 91.9919 63.3678 91.9919 64.593C91.9919 65.8183 92.17 66.7253 92.5273 67.3141C92.89 67.897 93.3742 68.1884 93.9809 68.1884C94.5876 68.1884 95.07 67.894 95.4263 67.3052C95.7891 66.7163 95.9709 65.8123 95.9709 64.593C95.9709 63.9804 95.9234 63.4481 95.8284 62.996C95.7333 62.544 95.599 62.1692 95.4263 61.8719C95.2546 61.5745 95.0463 61.3544 94.8023 61.2117C94.5584 61.063 94.2843 60.9886 93.9809 60.9886ZM99.4419 60.605C99.6557 60.6169 99.8704 60.6288 100.084 60.6407C100.298 60.6526 100.468 60.6615 100.593 60.6674C100.717 60.6734 100.833 60.6764 100.941 60.6764C101.03 60.6764 101.134 60.6734 101.253 60.6674C101.373 60.6615 101.532 60.6526 101.735 60.6407C101.944 60.6288 102.143 60.6169 102.333 60.605C102.44 60.6407 102.526 60.7329 102.591 60.8815C102.586 60.9291 102.574 61.0005 102.556 61.0957C102.544 61.1849 102.532 61.2949 102.52 61.4258C102.515 61.5506 102.511 61.7053 102.511 61.8897L102.494 66.1275C102.494 67.1981 102.818 67.7334 103.466 67.7334C104.067 67.7334 104.92 67.3379 106.027 66.5468C106.027 64.7744 106 63.222 105.946 61.8897C105.946 61.7827 105.925 61.6875 105.884 61.6042C105.842 61.521 105.776 61.4496 105.688 61.3901C105.605 61.3307 105.527 61.2831 105.456 61.2473C105.39 61.2057 105.292 61.17 105.161 61.1403C105.03 61.1046 104.939 61.0838 104.885 61.0779C104.831 61.0659 104.742 61.0481 104.617 61.0243C104.593 60.9291 104.581 60.8578 104.581 60.8102C104.581 60.7685 104.593 60.7002 104.617 60.605C104.825 60.6169 105.036 60.6288 105.25 60.6407C105.47 60.6526 105.643 60.6615 105.768 60.6674C105.892 60.6734 106.008 60.6764 106.116 60.6764C106.205 60.6764 106.309 60.6734 106.428 60.6674C106.548 60.6615 106.707 60.6526 106.91 60.6407C107.119 60.6288 107.318 60.6169 107.508 60.605C107.538 60.6228 107.562 60.6407 107.579 60.6585C107.603 60.6704 107.621 60.6882 107.633 60.7121C107.65 60.7299 107.662 60.7448 107.669 60.7567C107.674 60.7626 107.683 60.7834 107.695 60.8191C107.707 60.8488 107.716 60.8697 107.722 60.8815C107.674 61.2028 107.65 61.5388 107.65 61.8897C107.615 62.7641 107.597 63.4748 107.597 64.022C107.597 64.3075 107.603 64.7863 107.615 65.4584C107.627 66.1305 107.633 66.7193 107.633 67.2249C107.972 67.4211 108.543 67.5431 109.346 67.5907C109.375 67.7393 109.391 67.8167 109.391 67.8226C109.391 67.8583 109.375 67.9208 109.346 68.01C108.221 68.117 107.216 68.3609 106.33 68.7415C106.176 68.6761 106.074 68.5958 106.027 68.5007V67.1089C105.432 67.6204 104.87 68.0278 104.34 68.3311C103.817 68.6285 103.288 68.7773 102.752 68.7773C102.074 68.7773 101.592 68.587 101.307 68.2063C101.027 67.8256 100.881 67.2278 100.869 66.413L100.798 61.8897C100.786 61.7529 100.759 61.6518 100.717 61.5864C100.682 61.515 100.62 61.4496 100.53 61.3901C100.447 61.3307 100.37 61.2831 100.298 61.2473C100.227 61.2057 100.126 61.17 99.9947 61.1403C99.864 61.1046 99.7718 61.0838 99.7188 61.0779C99.6649 61.0659 99.5726 61.0481 99.4419 61.0243C99.4182 60.9291 99.4063 60.8578 99.4063 60.8102C99.4063 60.7685 99.4182 60.7002 99.4419 60.605ZM114.164 68.7773C113.872 68.7773 113.607 68.7535 113.37 68.7059C113.138 68.6583 112.957 68.6078 112.825 68.5542C112.701 68.5007 112.531 68.4204 112.317 68.3133C112.085 68.3133 111.743 68.3996 111.291 68.5721C111.214 68.5245 111.16 68.4709 111.13 68.4114C111.16 68.3163 111.195 67.9921 111.237 67.439C111.285 66.8859 111.309 66.3922 111.309 65.958C111.386 65.9223 111.526 65.9045 111.728 65.9045C111.835 66.2495 111.945 66.5438 112.058 66.7877C112.178 67.0316 112.326 67.2695 112.505 67.5014C112.689 67.7275 112.908 67.8999 113.164 68.0189C113.427 68.1319 113.723 68.1884 114.057 68.1884C114.574 68.1884 114.979 68.0546 115.27 67.7869C115.568 67.5193 115.716 67.2159 115.716 66.8769C115.716 66.6212 115.675 66.404 115.592 66.2256C115.509 66.0472 115.321 65.8598 115.029 65.6636C114.744 65.4613 114.334 65.2621 113.798 65.0658C113.465 64.9469 113.183 64.8369 112.951 64.7358C112.718 64.6346 112.477 64.5097 112.228 64.361C111.984 64.2124 111.787 64.0606 111.639 63.906C111.49 63.7454 111.368 63.5551 111.273 63.3351C111.178 63.115 111.13 62.8741 111.13 62.6124C111.13 62.422 111.152 62.2346 111.193 62.0503C111.24 61.86 111.327 61.6637 111.451 61.4615C111.583 61.2592 111.743 61.0838 111.934 60.9351C112.13 60.7804 112.389 60.6555 112.709 60.5604C113.036 60.4593 113.406 60.4087 113.816 60.4087C113.983 60.4087 114.128 60.4176 114.253 60.4354C114.384 60.4533 114.538 60.4861 114.718 60.5337C114.901 60.5752 115.003 60.5991 115.021 60.605C115.152 60.5752 115.285 60.5366 115.422 60.489C115.565 60.4415 115.645 60.4147 115.663 60.4087H115.895C116.038 61.2652 116.222 61.9938 116.448 62.5945C116.377 62.6719 116.261 62.7105 116.1 62.7105C115.607 62.1157 115.184 61.6816 114.834 61.4079C114.488 61.1284 114.095 60.9886 113.656 60.9886C113.311 60.9886 113.007 61.0659 112.745 61.2206C112.484 61.3752 112.353 61.6102 112.353 61.9254C112.353 62.3239 112.51 62.6362 112.825 62.8622C113.147 63.0882 113.739 63.3766 114.602 63.7276C115 63.8881 115.312 64.022 115.538 64.129C115.77 64.2361 116.002 64.364 116.234 64.5127C116.466 64.6614 116.635 64.8161 116.742 64.9766C116.856 65.1312 116.948 65.3186 117.019 65.5387C117.09 65.7588 117.126 66.0145 117.126 66.3059C117.126 66.9364 116.835 67.5074 116.252 68.0189C115.675 68.5245 114.979 68.7773 114.164 68.7773ZM125.719 63.79H120.856C120.832 64.1469 120.82 64.4621 120.82 64.7358C120.838 65.6219 121.097 66.3327 121.597 66.868C122.096 67.3974 122.765 67.662 123.604 67.662C123.83 67.662 124.042 67.6383 124.238 67.5907C124.434 67.5372 124.594 67.4777 124.719 67.4123C124.85 67.3468 124.984 67.2517 125.121 67.1268C125.258 67.0018 125.356 66.9037 125.416 66.8323C125.481 66.755 125.567 66.642 125.674 66.4933C125.781 66.3386 125.852 66.2405 125.888 66.1989C126.031 66.2286 126.147 66.294 126.236 66.3952C125.939 67.1922 125.478 67.7899 124.853 68.1884C124.229 68.581 123.551 68.7773 122.819 68.7773C122.456 68.7773 122.102 68.7297 121.757 68.6345C121.418 68.5453 121.088 68.3966 120.767 68.1884C120.445 67.9802 120.166 67.7245 119.928 67.4211C119.69 67.1119 119.5 66.7283 119.357 66.2703C119.215 65.8063 119.142 65.2949 119.142 64.7358C119.142 63.4808 119.526 62.4459 120.294 61.6309C121.061 60.8161 122.004 60.4087 123.122 60.4087C123.616 60.4087 124.044 60.4801 124.407 60.6228C124.776 60.7597 125.061 60.947 125.264 61.1849C125.471 61.4228 125.623 61.6845 125.719 61.97C125.82 62.2495 125.871 62.5499 125.871 62.8711C125.871 63.1685 125.82 63.4748 125.719 63.79ZM122.908 60.9886C122.497 60.9886 122.108 61.17 121.739 61.5328C121.376 61.8957 121.115 62.4459 120.954 63.1834H124.166C124.226 62.9574 124.255 62.7611 124.255 62.5945C124.255 62.1306 124.148 61.747 123.935 61.4437C123.72 61.1403 123.378 60.9886 122.908 60.9886Z" fill="black"/>
</svg>
